<?xml version="1.0" encoding="utf-8"?>
<!-- Generator: Adobe Illustrator 16.0.0, SVG Export Plug-In . SVG Version: 6.00 Build 0)  -->
<!DOCTYPE svg PUBLIC "-//W3C//DTD SVG 1.1//EN" "http://www.w3.org/Graphics/SVG/1.1/DTD/svg11.dtd">
<svg version="1.1" id="Layer_1" xmlns="http://www.w3.org/2000/svg" xmlns:xlink="http://www.w3.org/1999/xlink" x="0px" y="0px"
	 width="640px" height="480px" viewBox="0 0 640 480" enable-background="new 0 0 640 480" xml:space="preserve">
<path fill="#840909" d="M136.57,113.873c9.059,9.38,20.833,15.648,30.489,24.39c20.052,18.154,43.008,33.605,66.25,47.372
	c25.113,14.875,50.737,28.854,76.478,42.606c15.497,8.279,31.469,16.63,44.213,28.616V124c0,0-145.811-76.648-205.324-33.189
	c-6.61,4.827-12.013,10.97-16.406,18.067C133.64,110.607,135.049,112.298,136.57,113.873z"/>
<path fill="#840909" d="M299.572,233.959c-24.413-13.536-48.718-27.29-72.471-41.961c-22.551-13.93-45.033-29.618-64.325-47.858
	c-9.141-8.644-20.623-14.666-29.253-23.85c-1.077-1.146-2.098-2.378-3.094-3.65c-27.927,59.093-2.54,165.703-2.54,165.703
	l226.978,3.111l0.174-12.595C341.001,254.923,319.104,244.79,299.572,233.959z"/>
<g>
	<g>
		<path fill="#840909" d="M149.061,51.844c4.119-5.035,7.763-10.426,12.703-14.729c2.819-2.456,6.586-4.435,9.753-1.47
			c3.225,3.019,2.637,6.979,2.79,10.886c0.238,6.099,8.141,5.547,12.211,3.807c7.494-3.204,7.032-11.186,9.805-17.715
			c-0.565,0.229-1.129,0.459-1.694,0.689c10.218,4.049,14.063,16.625,22.354,23.229c4.841,3.855,12.08,6.126,16.296,0.478
			c3.875-5.191,4.491-16.225,13.425-10.63c7.648,4.789,13.053,12.917,21.95,15.722c2.892,0.912,6.259,0.38,8.753-1.308
			c2.078-1.406,4.531,0.125,6.594,1.008c3.042,1.301,6.05,2.42,9.277,3.191c6.261,1.496,12.414,2.617,18.529,4.727
			c6.942,2.396,13.732,5.234,20.632,7.751c5.457,1.991,11.597,3.342,15.934,7.427c4.604,4.335,7.477,8.625,13.204,11.713
			c5.503,2.967,11.556,4.938,17.34,7.267c3.352,1.35,6.538,3.024,9.829,4.504c1.961,0.882,4.134,1.637,5.669,3.199
			c2.693,2.743,2.335,8.677,2.798,12.198c0.381,2.895,1.481,5.172,3.405,7.351c6.14,6.955,16.143,8.616,24.019,12.702
			c9.737,5.05,6.355,16.862,7.659,25.932c1.888,13.137,6.036,26.178-1.432,38.306c-3.493,5.673-7.775,10.861-11.919,16.061
			c-3.445,4.323-6.658,8.874-10.41,12.936c-5.276,5.713-15.101,13.406-13.207,22.367c3.082,14.582,24.091,14.596,34.079,21.827
			c-0.102-0.785-0.202-1.57-0.304-2.355c-7.854,9.296-6.503,19.459-6.746,30.856c-0.175,8.181-1.399,20.548-11.128,22.583
			c-9.21,1.927-20.39-3.229-29.183-5.256c-14.103-3.251-28.615-4.605-43.06-4.977c-29.962-0.768-59.878,3.48-89.373,8.296
			c-13.366,2.183-26.165,4.888-39.202,8.511c-6.184,1.718-12.478,3.142-18.923,3.146c-6.814,0.006-12.585-3.085-18.008-6.906
			c-9.207-6.487-17.545-16.04-29.434-17.156c-12.725-1.194-26.47,2.776-38.023,7.835c-6.863,3.005-12.593,2.907-16.479-4.262
			c-2.618-4.831-3.569-10.418-5.502-15.522c-5.151-13.606-10.318-27.415-16.866-40.422c-6.159-12.233-14.533-23.19-20.328-35.631
			c-6.292-13.507-7.569-28.7-7.906-43.4c-0.644-28.125-1.333-57.674,10.454-83.811c2.785-6.174,6.11-12.197,10.484-17.377
			c2.985-3.535,5.457-7.431,4.353-12.177c-2.27-9.76-14.773-14.116-20.341-21.594c-0.299,0.734-0.598,1.469-0.896,2.203
			c8.849-2.075,17.997-0.83,26.948-0.206c9.855,0.687,19.771-0.103,29.6-0.848c10.197-0.773,20.38-1.634,30.614-1.655
			c7.578-0.017,15.089,3.778,22.568,2.708c1.909-0.273,1.094-3.163-0.798-2.893c-3.921,0.561-7.988-0.971-11.757-1.88
			c-3.936-0.949-7.884-0.941-11.913-0.932c-10.228,0.022-20.441,1.024-30.631,1.796c-9.804,0.743-19.593,1.266-29.413,0.582
			c-8.7-0.606-17.424-1.581-26.015,0.434c-0.873,0.205-1.47,1.433-0.896,2.203c5.504,7.391,19.17,12.557,20.336,22.486
			c0.417,3.546-3.656,7.414-5.734,9.827c-1.835,2.131-3.183,4.628-4.591,7.053c-3.333,5.74-6.03,11.83-8.299,18.06
			c-4.532,12.443-6.386,25.717-6.744,38.904c-0.382,14.061-0.696,28.243-0.17,42.301c0.485,12.961,2.193,26.284,7.497,38.234
			c5.567,12.545,13.747,23.632,20.237,35.68c7.16,13.291,12.306,27.911,17.643,42.008c2.769,7.315,4.069,19.635,12.78,22.653
			c4.167,1.444,8.034,0.322,11.969-1.369c6.996-3.007,14.013-5.116,21.449-6.761c7.375-1.632,14.966-2.235,22.224,0.191
			c6.404,2.141,11.922,7.435,17.101,11.544c8.792,6.977,17.232,11.78,28.75,10.936c12.136-0.89,23.476-6.137,35.356-8.355
			c30.144-5.628,60.84-10.262,91.514-11.338c15.497-0.544,31.057,0.119,46.396,2.447c11.719,1.778,22.931,5.937,34.638,7.575
			c8.081,1.131,15.549-0.938,18.781-9.064c5.812-14.608-1.877-32.512,8.793-45.142c0.665-0.787,0.521-1.759-0.304-2.355
			c-6.751-4.889-15.56-6.406-23.008-9.95c-3.789-1.803-7.661-4.307-9.254-8.366c-2.521-6.424,3.889-12.598,7.84-16.81
			c8.753-9.332,16.77-19.465,24.22-29.879c3.486-4.873,6.323-9.673,7.283-15.645c0.966-6.012-0.034-12.245-1.006-18.191
			c-0.968-5.921-2.189-11.757-2.274-17.778c-0.063-4.504,0.486-10.263-1.718-14.404c-4.539-8.531-16.822-9.817-24.514-14.186
			c-4.795-2.724-7.895-6.025-8.498-11.52c-0.434-3.938-0.695-8.189-2.813-11.652c-1.667-2.726-5.422-3.824-8.143-5.048
			c-6.235-2.805-12.446-5.458-18.803-7.996c-6.086-2.429-11.713-5.192-16.047-10.221c-3.18-3.689-5.855-6.5-10.332-8.533
			c-4.262-1.937-8.814-3.272-13.217-4.852c-6.596-2.367-13.054-5.094-19.68-7.381c-5.529-1.908-11.183-2.939-16.883-4.159
			c-4.929-1.055-9.422-4.339-14.385-4.91c-2.502-0.288-3.733,1.349-5.973,2.054c-4.988,1.571-10.298-2.964-13.839-5.853
			c-4.637-3.784-10.47-11.229-16.915-11.786c-5.724-0.495-8.317,5.222-10.146,9.642c-1.15,2.78-2.407,6.134-5.875,6.29
			c-5.21,0.234-9.945-4.642-12.998-8.252c-5.727-6.775-9.82-15.427-18.518-18.874c-0.561-0.222-1.455,0.126-1.694,0.689
			c-3.278,7.721-3.101,19.063-14.98,17.201c-2.474-0.388-1.278-6.01-1.573-7.77c-0.494-2.948-2.027-5.6-4.203-7.636
			c-9.204-8.614-21.499,11.274-26.036,16.82C145.725,51.207,147.835,53.343,149.061,51.844L149.061,51.844z"/>
	</g>
</g>
<linearGradient id="SVGID_1_" gradientUnits="userSpaceOnUse" x1="488" y1="133" x2="558" y2="133">
	<stop  offset="0" style="stop-color:#CCE0F4"/>
	<stop  offset="0.0424" style="stop-color:#C3DCF2"/>
	<stop  offset="0.1129" style="stop-color:#A9D2EE"/>
	<stop  offset="0.2028" style="stop-color:#80C2E7"/>
	<stop  offset="0.3075" style="stop-color:#47ACDE"/>
	<stop  offset="0.3753" style="stop-color:#1E9CD7"/>
	<stop  offset="0.6238" style="stop-color:#0075BE"/>
	<stop  offset="0.8276" style="stop-color:#005D9A"/>
	<stop  offset="0.9944" style="stop-color:#005B97"/>
</linearGradient>
<rect x="488" y="56" fill="url(#SVGID_1_)" width="70" height="154"/>
</svg>
